<svg xmlns="http://www.w3.org/2000/svg" viewBox="0 0 900 64" width="100%" height="64">
<style>
@keyframes d1{0%,100%{transform:translateY(0);opacity:0.2}50%{transform:translateY(28px);opacity:1}}
@keyframes d2{0%,100%{transform:translateY(0);opacity:0.2}50%{transform:translateY(28px);opacity:1}}
@keyframes d3{0%,100%{transform:translateY(0);opacity:0.2}50%{transform:translateY(28px);opacity:1}}
@keyframes bl{0%,49%{opacity:1}50%,100%{opacity:0}}
@keyframes csp{0%,100%{transform:scaleX(1)}25%{transform:scaleX(0.08)}75%{transform:scaleX(0.08)}}
@keyframes glow{0%,100%{fill:#FBD000}50%{fill:#FF8800}}
.d1{animation:d1 1.0s ease-in 0s infinite}
.d2{animation:d2 1.0s ease-in 0.33s infinite}
.d3{animation:d3 1.0s ease-in 0.66s infinite}
.bl{animation:bl 0.5s steps(1) infinite}
.sp{animation:csp 0.5s linear infinite;transform-box:fill-box;transform-origin:center}
.gl{animation:glow 0.5s ease-in-out infinite}</style>
<rect width="900" height="64" fill="#1A1A1A"/>

<rect x="0" y="0" width="38" height="12" fill="#3d2010" opacity="0.35"/><rect x="40" y="0" width="38" height="12" fill="#3d2010" opacity="0.35"/><rect x="80" y="0" width="38" height="12" fill="#3d2010" opacity="0.35"/><rect x="120" y="0" width="38" height="12" fill="#3d2010" opacity="0.35"/><rect x="160" y="0" width="38" height="12" fill="#3d2010" opacity="0.35"/><rect x="200" y="0" width="38" height="12" fill="#3d2010" opacity="0.35"/><rect x="240" y="0" width="38" height="12" fill="#3d2010" opacity="0.35"/><rect x="280" y="0" width="38" height="12" fill="#3d2010" opacity="0.35"/><rect x="320" y="0" width="38" height="12" fill="#3d2010" opacity="0.35"/><rect x="360" y="0" width="38" height="12" fill="#3d2010" opacity="0.35"/><rect x="400" y="0" width="38" height="12" fill="#3d2010" opacity="0.35"/><rect x="440" y="0" width="38" height="12" fill="#3d2010" opacity="0.35"/><rect x="480" y="0" width="38" height="12" fill="#3d2010" opacity="0.35"/><rect x="520" y="0" width="38" height="12" fill="#3d2010" opacity="0.35"/><rect x="560" y="0" width="38" height="12" fill="#3d2010" opacity="0.35"/><rect x="600" y="0" width="38" height="12" fill="#3d2010" opacity="0.35"/><rect x="640" y="0" width="38" height="12" fill="#3d2010" opacity="0.35"/><rect x="680" y="0" width="38" height="12" fill="#3d2010" opacity="0.35"/><rect x="720" y="0" width="38" height="12" fill="#3d2010" opacity="0.35"/><rect x="760" y="0" width="38" height="12" fill="#3d2010" opacity="0.35"/><rect x="800" y="0" width="38" height="12" fill="#3d2010" opacity="0.35"/><rect x="840" y="0" width="38" height="12" fill="#3d2010" opacity="0.35"/><rect x="880" y="0" width="38" height="12" fill="#3d2010" opacity="0.35"/><rect x="0" y="0" width="38" height="12" fill="#3d2010" opacity="0.35"/><rect x="20" y="14" width="38" height="12" fill="#3d2010" opacity="0.35"/><rect x="60" y="14" width="38" height="12" fill="#3d2010" opacity="0.35"/><rect x="100" y="14" width="38" height="12" fill="#3d2010" opacity="0.35"/><rect x="140" y="14" width="38" height="12" fill="#3d2010" opacity="0.35"/><rect x="180" y="14" width="38" height="12" fill="#3d2010" opacity="0.35"/><rect x="220" y="14" width="38" height="12" fill="#3d2010" opacity="0.35"/><rect x="260" y="14" width="38" height="12" fill="#3d2010" opacity="0.35"/><rect x="300" y="14" width="38" height="12" fill="#3d2010" opacity="0.35"/><rect x="340" y="14" width="38" height="12" fill="#3d2010" opacity="0.35"/><rect x="380" y="14" width="38" height="12" fill="#3d2010" opacity="0.35"/><rect x="420" y="14" width="38" height="12" fill="#3d2010" opacity="0.35"/><rect x="460" y="14" width="38" height="12" fill="#3d2010" opacity="0.35"/><rect x="500" y="14" width="38" height="12" fill="#3d2010" opacity="0.35"/><rect x="540" y="14" width="38" height="12" fill="#3d2010" opacity="0.35"/><rect x="580" y="14" width="38" height="12" fill="#3d2010" opacity="0.35"/><rect x="620" y="14" width="38" height="12" fill="#3d2010" opacity="0.35"/><rect x="660" y="14" width="38" height="12" fill="#3d2010" opacity="0.35"/><rect x="700" y="14" width="38" height="12" fill="#3d2010" opacity="0.35"/><rect x="740" y="14" width="38" height="12" fill="#3d2010" opacity="0.35"/><rect x="780" y="14" width="38" height="12" fill="#3d2010" opacity="0.35"/><rect x="820" y="14" width="38" height="12" fill="#3d2010" opacity="0.35"/><rect x="860" y="14" width="38" height="12" fill="#3d2010" opacity="0.35"/><rect x="900" y="14" width="38" height="12" fill="#3d2010" opacity="0.35"/><rect x="20" y="14" width="38" height="12" fill="#3d2010" opacity="0.35"/><rect x="0" y="28" width="38" height="12" fill="#3d2010" opacity="0.35"/><rect x="40" y="28" width="38" height="12" fill="#3d2010" opacity="0.35"/><rect x="80" y="28" width="38" height="12" fill="#3d2010" opacity="0.35"/><rect x="120" y="28" width="38" height="12" fill="#3d2010" opacity="0.35"/><rect x="160" y="28" width="38" height="12" fill="#3d2010" opacity="0.35"/><rect x="200" y="28" width="38" height="12" fill="#3d2010" opacity="0.35"/><rect x="240" y="28" width="38" height="12" fill="#3d2010" opacity="0.35"/><rect x="280" y="28" width="38" height="12" fill="#3d2010" opacity="0.35"/><rect x="320" y="28" width="38" height="12" fill="#3d2010" opacity="0.35"/><rect x="360" y="28" width="38" height="12" fill="#3d2010" opacity="0.35"/><rect x="400" y="28" width="38" height="12" fill="#3d2010" opacity="0.35"/><rect x="440" y="28" width="38" height="12" fill="#3d2010" opacity="0.35"/><rect x="480" y="28" width="38" height="12" fill="#3d2010" opacity="0.35"/><rect x="520" y="28" width="38" height="12" fill="#3d2010" opacity="0.35"/><rect x="560" y="28" width="38" height="12" fill="#3d2010" opacity="0.35"/><rect x="600" y="28" width="38" height="12" fill="#3d2010" opacity="0.35"/><rect x="640" y="28" width="38" height="12" fill="#3d2010" opacity="0.35"/><rect x="680" y="28" width="38" height="12" fill="#3d2010" opacity="0.35"/><rect x="720" y="28" width="38" height="12" fill="#3d2010" opacity="0.35"/><rect x="760" y="28" width="38" height="12" fill="#3d2010" opacity="0.35"/><rect x="800" y="28" width="38" height="12" fill="#3d2010" opacity="0.35"/><rect x="840" y="28" width="38" height="12" fill="#3d2010" opacity="0.35"/><rect x="880" y="28" width="38" height="12" fill="#3d2010" opacity="0.35"/><rect x="0" y="28" width="38" height="12" fill="#3d2010" opacity="0.35"/><rect x="20" y="42" width="38" height="12" fill="#3d2010" opacity="0.35"/><rect x="60" y="42" width="38" height="12" fill="#3d2010" opacity="0.35"/><rect x="100" y="42" width="38" height="12" fill="#3d2010" opacity="0.35"/><rect x="140" y="42" width="38" height="12" fill="#3d2010" opacity="0.35"/><rect x="180" y="42" width="38" height="12" fill="#3d2010" opacity="0.35"/><rect x="220" y="42" width="38" height="12" fill="#3d2010" opacity="0.35"/><rect x="260" y="42" width="38" height="12" fill="#3d2010" opacity="0.35"/><rect x="300" y="42" width="38" height="12" fill="#3d2010" opacity="0.35"/><rect x="340" y="42" width="38" height="12" fill="#3d2010" opacity="0.35"/><rect x="380" y="42" width="38" height="12" fill="#3d2010" opacity="0.35"/><rect x="420" y="42" width="38" height="12" fill="#3d2010" opacity="0.35"/><rect x="460" y="42" width="38" height="12" fill="#3d2010" opacity="0.35"/><rect x="500" y="42" width="38" height="12" fill="#3d2010" opacity="0.35"/><rect x="540" y="42" width="38" height="12" fill="#3d2010" opacity="0.35"/><rect x="580" y="42" width="38" height="12" fill="#3d2010" opacity="0.35"/><rect x="620" y="42" width="38" height="12" fill="#3d2010" opacity="0.35"/><rect x="660" y="42" width="38" height="12" fill="#3d2010" opacity="0.35"/><rect x="700" y="42" width="38" height="12" fill="#3d2010" opacity="0.35"/><rect x="740" y="42" width="38" height="12" fill="#3d2010" opacity="0.35"/><rect x="780" y="42" width="38" height="12" fill="#3d2010" opacity="0.35"/><rect x="820" y="42" width="38" height="12" fill="#3d2010" opacity="0.35"/><rect x="860" y="42" width="38" height="12" fill="#3d2010" opacity="0.35"/><rect x="900" y="42" width="38" height="12" fill="#3d2010" opacity="0.35"/><rect x="20" y="42" width="38" height="12" fill="#3d2010" opacity="0.35"/><rect x="0" y="56" width="38" height="12" fill="#3d2010" opacity="0.35"/><rect x="40" y="56" width="38" height="12" fill="#3d2010" opacity="0.35"/><rect x="80" y="56" width="38" height="12" fill="#3d2010" opacity="0.35"/><rect x="120" y="56" width="38" height="12" fill="#3d2010" opacity="0.35"/><rect x="160" y="56" width="38" height="12" fill="#3d2010" opacity="0.35"/><rect x="200" y="56" width="38" height="12" fill="#3d2010" opacity="0.35"/><rect x="240" y="56" width="38" height="12" fill="#3d2010" opacity="0.35"/><rect x="280" y="56" width="38" height="12" fill="#3d2010" opacity="0.35"/><rect x="320" y="56" width="38" height="12" fill="#3d2010" opacity="0.35"/><rect x="360" y="56" width="38" height="12" fill="#3d2010" opacity="0.35"/><rect x="400" y="56" width="38" height="12" fill="#3d2010" opacity="0.35"/><rect x="440" y="56" width="38" height="12" fill="#3d2010" opacity="0.35"/><rect x="480" y="56" width="38" height="12" fill="#3d2010" opacity="0.35"/><rect x="520" y="56" width="38" height="12" fill="#3d2010" opacity="0.35"/><rect x="560" y="56" width="38" height="12" fill="#3d2010" opacity="0.35"/><rect x="600" y="56" width="38" height="12" fill="#3d2010" opacity="0.35"/><rect x="640" y="56" width="38" height="12" fill="#3d2010" opacity="0.35"/><rect x="680" y="56" width="38" height="12" fill="#3d2010" opacity="0.35"/><rect x="720" y="56" width="38" height="12" fill="#3d2010" opacity="0.35"/><rect x="760" y="56" width="38" height="12" fill="#3d2010" opacity="0.35"/><rect x="800" y="56" width="38" height="12" fill="#3d2010" opacity="0.35"/><rect x="840" y="56" width="38" height="12" fill="#3d2010" opacity="0.35"/><rect x="880" y="56" width="38" height="12" fill="#3d2010" opacity="0.35"/><rect x="0" y="56" width="38" height="12" fill="#3d2010" opacity="0.35"/>
<g class="d1" transform="translate(12,2)"><g transform="translate(0,0)">
  <rect x="4" y="0" width="14" height="22" fill="#FBD000"/>
  <rect x="0" y="4" width="22" height="14" fill="#FBD000"/>
  <rect x="2" y="1" width="18" height="20" fill="#FBD000"/>
  <rect x="6" y="1" width="10" height="20" fill="#E5A300"/>
  <rect x="1" y="6" width="20" height="10" fill="#E5A300"/>
  <rect x="4" y="2" width="14" height="18" fill="#E5A300"/>
  <rect x="7" y="3" width="6" height="9" fill="#FFE566"/>
</g></g>
<g class="d2" transform="translate(40,2)"><g transform="translate(0,0)">
  <rect x="4" y="0" width="14" height="22" fill="#FBD000"/>
  <rect x="0" y="4" width="22" height="14" fill="#FBD000"/>
  <rect x="2" y="1" width="18" height="20" fill="#FBD000"/>
  <rect x="6" y="1" width="10" height="20" fill="#E5A300"/>
  <rect x="1" y="6" width="20" height="10" fill="#E5A300"/>
  <rect x="4" y="2" width="14" height="18" fill="#E5A300"/>
  <rect x="7" y="3" width="6" height="9" fill="#FFE566"/>
</g></g>
<g class="d3" transform="translate(26,2)"><g transform="translate(0,0)">
  <rect x="4" y="0" width="14" height="22" fill="#FBD000"/>
  <rect x="0" y="4" width="22" height="14" fill="#FBD000"/>
  <rect x="2" y="1" width="18" height="20" fill="#FBD000"/>
  <rect x="6" y="1" width="10" height="20" fill="#E5A300"/>
  <rect x="1" y="6" width="20" height="10" fill="#E5A300"/>
  <rect x="4" y="2" width="14" height="18" fill="#E5A300"/>
  <rect x="7" y="3" width="6" height="9" fill="#FFE566"/>
</g></g>
<rect x="852" y="14" width="32" height="36" fill="#2a1400" rx="3"/>
<rect x="860" y="8" width="16" height="14" fill="#FBD000" rx="2"/>
<rect x="862" y="10" width="12" height="10" fill="#E5A300"/>
<g class="bl"><rect x="864" y="36" width="6" height="6" fill="#FBD000" rx="1"/></g>
<rect x="854" y="48" width="28" height="3" fill="#FBD000" opacity="0.5"/>
<text x="82" y="42" font-family="'Courier New',Courier,monospace" font-size="18" font-weight="900" letter-spacing="2" fill="#00000099">INSERT COIN</text>
<text x="80" y="40" font-family="'Courier New',Courier,monospace" font-size="18" font-weight="900" letter-spacing="2" fill="#FBD000">INSERT COIN</text>
</svg>